<mxfile host="65bd71144e">
    <diagram id="sepzSAH-rnniSR1z4Kyg" name="Page-1">
        <mxGraphModel dx="1164" dy="594" grid="1" gridSize="10" guides="1" tooltips="1" connect="1" arrows="1" fold="1" page="1" pageScale="1" pageWidth="850" pageHeight="1100" math="0" shadow="0">
            <root>
                <mxCell id="0"/>
                <mxCell id="1" parent="0"/>
                <mxCell id="33" value="" style="strokeWidth=1;shadow=0;dashed=0;align=center;html=1;shape=mxgraph.mockup.containers.browserWindow;rSize=0;strokeColor=#666666;strokeColor2=#008cff;strokeColor3=#c4c4c4;mainText=,;recursiveResize=0;fillColor=#FFFFFF;" vertex="1" parent="1">
                    <mxGeometry x="15" width="820" height="570" as="geometry"/>
                </mxCell>
                <mxCell id="34" value="Page 1" style="strokeWidth=1;shadow=0;dashed=0;align=center;html=1;shape=mxgraph.mockup.containers.anchor;fontSize=17;fontColor=#666666;align=left;fillColor=#FFFFFF;" vertex="1" parent="33">
                    <mxGeometry x="60" y="12" width="110" height="26" as="geometry"/>
                </mxCell>
                <mxCell id="35" value="OptionStar.com" style="strokeWidth=1;shadow=0;dashed=0;align=center;html=1;shape=mxgraph.mockup.containers.anchor;rSize=0;fontSize=17;fontColor=#666666;align=left;fillColor=#FFFFFF;" vertex="1" parent="33">
                    <mxGeometry x="130" y="60" width="250" height="26" as="geometry"/>
                </mxCell>
                <mxCell id="36" value="" style="html=1;shadow=0;dashed=0;shape=mxgraph.bootstrap.rrect;rSize=5;fillColor=#ffffff;strokeColor=#999999;fontColor=#F01373;" vertex="1" parent="33">
                    <mxGeometry x="280" y="160" width="220" height="190" as="geometry"/>
                </mxCell>
                <mxCell id="38" value="email@example.com" style="html=1;shadow=0;dashed=0;shape=mxgraph.bootstrap.rrect;rSize=5;fillColor=none;strokeColor=#999999;align=left;spacing=15;fontSize=14;fontColor=#6C767D;" vertex="1" parent="36">
                    <mxGeometry width="180" height="30" relative="1" as="geometry">
                        <mxPoint x="20" y="20" as="offset"/>
                    </mxGeometry>
                </mxCell>
                <mxCell id="40" value="Password" style="html=1;shadow=0;dashed=0;shape=mxgraph.bootstrap.rrect;rSize=5;fillColor=none;strokeColor=#999999;align=left;spacing=15;fontSize=14;fontColor=#6C767D;" vertex="1" parent="36">
                    <mxGeometry width="180" height="30" relative="1" as="geometry">
                        <mxPoint x="20" y="80" as="offset"/>
                    </mxGeometry>
                </mxCell>
                <mxCell id="42" value="Sign Up" style="html=1;shadow=0;dashed=0;shape=mxgraph.bootstrap.rrect;rSize=5;fillColor=#0085FC;strokeColor=none;align=center;fontSize=14;fontColor=#FFFFFF;" vertex="1" parent="36">
                    <mxGeometry width="70" height="40" relative="1" as="geometry">
                        <mxPoint x="130" y="130" as="offset"/>
                    </mxGeometry>
                </mxCell>
                <mxCell id="45" value="Login" style="html=1;shadow=0;dashed=0;shape=mxgraph.bootstrap.rrect;rSize=5;fillColor=#0085FC;strokeColor=none;align=center;fontSize=14;fontColor=#FFFFFF;" vertex="1" parent="36">
                    <mxGeometry x="20" y="130" width="70" height="40" as="geometry"/>
                </mxCell>
            </root>
        </mxGraphModel>
    </diagram>
</mxfile>